<svg width="519" height="138" viewBox="0 0 519 138" fill="none" xmlns="http://www.w3.org/2000/svg">
<path fill-rule="evenodd" clip-rule="evenodd" d="M110.337 84.2151C103.39 99.9755 107.562 117.032 119.446 126.366C60.7556 130.275 18.6371 135.152 0 138H518.402C498.87 134.772 463.057 130.155 417.658 126.494C417.944 126.029 418.198 125.546 418.419 125.045C423.383 113.783 409.538 97.9668 387.495 89.7188C383.621 88.2689 379.751 87.1494 375.976 86.3501C376.272 85.7583 376.554 85.1568 376.824 84.546C385.255 65.418 377.309 44.3806 359.074 37.5577C344.268 32.0173 327.231 37.5532 316.834 50.0719C313.71 35.8887 299.936 25.2036 283.417 25.2036C276.64 25.2036 270.324 27.0022 265.017 30.103C264.502 13.3981 249.446 0 230.949 0C212.126 0 196.867 13.8738 196.867 30.988C196.867 33.6393 197.233 36.2129 197.922 38.6691C195.853 38.2391 193.699 38.012 191.486 38.012C175.712 38.012 162.911 49.5528 162.786 63.8322C161.465 63.1147 160.075 62.4795 158.62 61.9349C140.385 55.1119 118.768 65.0871 110.337 84.2151Z" fill="white" fill-opacity="0.6"/>
</svg>
