<svg width="769" height="740" viewBox="0 0 769 740" fill="none" xmlns="http://www.w3.org/2000/svg">
<path fill-rule="evenodd" clip-rule="evenodd" d="M302.932 74.6037C302.977 73.5746 303 72.5399 303 71.5C303 32.0116 269.869 0 229 0C188.131 0 155 32.0116 155 71.5C155 110.022 186.529 141.429 226.013 142.943C153.367 173.699 103 240.743 103 318.5C103 425.367 198.139 512 315.5 512C385.878 512 448.266 480.846 486.937 432.856C495.053 477.407 554.89 512 627.5 512C705.648 512 769 471.929 769 422.5C769 402.63 758.763 384.273 741.444 369.423C742.46 365.613 743 361.618 743 357.5C743 331.266 721.062 310 694 310C675.648 310 659.653 319.78 651.258 334.256C646.532 333.751 641.728 333.394 636.856 333.193C642.095 322.258 645 310.187 645 297.5C645 248.071 600.9 208 546.5 208C541.716 208 537.011 208.31 532.409 208.909C544.619 195.777 552 178.687 552 160C552 118.579 515.735 85 471 85C446.292 85 424.167 95.2437 409.31 111.395C398.789 84.2908 371.726 65 340 65C326.493 65 313.831 68.4965 302.932 74.6037Z" fill="white" fill-opacity="0.52"/>
<path fill-rule="evenodd" clip-rule="evenodd" d="M210.958 270.266C210.792 269.25 210.603 268.232 210.39 267.214C202.321 228.559 163.348 203.993 123.341 212.344C83.3346 220.695 57.4441 258.802 65.5132 297.457C73.3848 335.166 110.666 359.467 149.627 352.881C84.7981 397.833 49.1937 473.755 65.0826 549.871C86.9199 654.483 197.755 719.847 312.639 695.865C381.532 681.484 436.237 638.239 464.286 583.36C481.335 625.313 546.977 646.948 618.055 632.111C694.555 616.142 748.382 563.972 738.281 515.585C734.221 496.135 720.449 480.257 700.46 469.259C700.677 465.322 700.389 461.3 699.548 457.27C694.187 431.59 668.366 415.255 641.875 420.785C623.911 424.534 610.252 437.376 604.991 453.263C600.263 453.734 595.486 454.366 590.676 455.165C593.57 443.39 593.948 430.98 591.355 418.561C581.255 370.174 529.897 339.961 476.645 351.077C471.962 352.055 467.42 353.319 463.037 354.846C472.306 339.497 476.039 321.259 472.221 302.966C463.756 262.419 421.395 236.959 377.604 246.1C353.417 251.149 333.853 265.698 322.609 284.544C306.772 260.161 276.338 246.808 245.281 253.291C232.06 256.051 220.379 262.061 210.958 270.266Z" fill="white" fill-opacity="0.52"/>
<path d="M378 18C374.8 12.8 371 14 366 18C363.578 19.9379 362.5 22 363 27.5C363.462 32.5781 365.5 33.5 367.5 35C369.833 36.7493 380.5 33.5 382 32.5C383.5 31.5 382 24.5 378 18Z" fill="white" fill-opacity="0.61"/>
<path d="M707.937 214.328C702.812 224.326 692.99 223.665 688.719 222.085C683.594 221.172 678.47 216.052 678.043 207.864C677.616 199.676 680.178 186.317 695.552 184.162C710.926 182.007 714.343 201.831 707.937 214.328Z" fill="white" fill-opacity="0.74"/>
<path d="M644.962 161.551C648.116 152.724 642.264 147.629 638.944 146.185C635.55 143.865 629.631 144.055 624.479 148.7C619.328 153.345 612.733 162.745 619.978 172.622C627.224 182.499 641.019 172.585 644.962 161.551Z" fill="white" fill-opacity="0.74"/>
</svg>
