<svg width="1813" height="844" viewBox="0 0 1813 844" fill="none" xmlns="http://www.w3.org/2000/svg">
<mask id="mask0_209_108" style="mask-type:alpha" maskUnits="userSpaceOnUse" x="0" y="0" width="1813" height="844">
<rect width="1813" height="844" fill="#D9D9D9"/>
</mask>
<g mask="url(#mask0_209_108)">
<path d="M673 380.531C420.6 335.731 105.833 353.531 -20 368.031L-115 956.531L1766.5 1096.03L1812.5 561.031C1734.33 542.365 1519.7 500.831 1286.5 484.031C995 463.031 988.5 436.531 673 380.531Z" fill="#EFFE7F"/>
<path fill-rule="evenodd" clip-rule="evenodd" d="M200.399 630.425C157.27 475.338 217.872 330.699 254.461 276L283.5 307.5C254.089 351.468 202.491 475.362 238.563 605.075L200.399 630.425Z" fill="#E2F360"/>
<path fill-rule="evenodd" clip-rule="evenodd" d="M255.5 623.561C212.372 468.474 272.974 323.835 309.563 269.136V307.5C280.152 351.468 228.554 475.362 264.626 605.075L255.5 623.561Z" fill="#E2F360"/>
<mask id="mask1_209_108" style="mask-type:alpha" maskUnits="userSpaceOnUse" x="0" y="0" width="1813" height="844">
<rect width="1813" height="844" fill="#D9D9D9"/>
</mask>
<g mask="url(#mask1_209_108)">
<path d="M1160.5 333.236C898.1 322.436 564.833 385.069 431 417.736L294 983.736H2002V455.236C1830.83 419.069 1422.9 344.036 1160.5 333.236Z" fill="#EFFE7F"/>
</g>
<path d="M1244 376C1006.4 376 686.333 485.667 556 540.5L564.5 965.5L1893.5 912L1861 433C1754.33 414 1481.6 376 1244 376Z" fill="#CAED5F"/>
<path fill-rule="evenodd" clip-rule="evenodd" d="M1434.15 478.202C1431.66 478.683 1429.08 478.935 1426.45 478.935C1418.87 478.935 1411.78 476.852 1405.71 473.228C1400.45 482.104 1390.77 488.055 1379.71 488.055C1363.02 488.055 1349.5 474.53 1349.5 457.846C1349.5 441.163 1363.02 427.638 1379.71 427.638C1382.29 427.638 1384.8 427.963 1387.2 428.573C1391.61 411.007 1407.51 398 1426.45 398C1445.78 398 1461.95 411.565 1465.96 429.699C1472.25 430.636 1477.94 433.408 1482.46 437.451C1486.07 433.853 1491.05 431.628 1496.55 431.628C1507.57 431.628 1516.5 440.559 1516.5 451.577C1516.5 462.594 1507.57 471.526 1496.55 471.526C1494.86 471.526 1493.22 471.315 1491.65 470.918C1487.56 483.828 1475.48 493.184 1461.21 493.184C1449.81 493.184 1439.8 487.201 1434.15 478.202Z" fill="#6D9822"/>
<path fill-rule="evenodd" clip-rule="evenodd" d="M1434.82 463.183C1432.34 463.496 1429.77 463.739 1427.14 463.903C1419.57 464.374 1412.45 464.134 1406.33 463.326C1401.26 466.556 1391.72 469.103 1380.68 469.792C1364.03 470.83 1350.25 467.249 1349.91 461.793C1349.57 456.338 1362.79 451.074 1379.45 450.037C1382.03 449.876 1384.54 449.826 1386.94 449.877C1390.99 443.858 1406.59 438.616 1425.49 437.438C1444.79 436.235 1461.2 439.665 1465.57 445.345C1471.87 445.26 1477.6 445.813 1482.2 446.853C1485.73 445.452 1490.66 444.415 1496.14 444.073C1507.14 443.387 1516.24 445.752 1516.46 449.355C1516.68 452.957 1507.95 456.433 1496.96 457.119C1495.27 457.224 1493.62 457.257 1492.05 457.225C1488.23 461.701 1476.36 465.512 1462.13 466.399C1450.74 467.109 1440.63 465.775 1434.82 463.183Z" fill="#5A850E"/>
<path d="M366.5 481.67C107.3 436.87 -76.5 468.67 -136 490.17V950.17L1809 996.67L1820 774.67C1654.17 683.17 1248.7 494.47 953.5 471.67C584.5 443.17 690.5 537.67 366.5 481.67Z" fill="#B2DB29"/>
<path d="M1004.21 550.985L900.108 552.575C898.547 552.598 894.314 550.645 889.868 542.642C885.422 534.639 894.38 515.671 899.415 507.187C904.339 515.038 914.98 530.729 918.15 530.681C921.32 530.632 918.902 493.438 917.297 474.846C921.424 493.399 931.334 530.479 937.962 530.378C944.59 530.277 947.037 503.337 947.432 489.879L961.016 530.026C958.976 498.711 955.923 441.901 960.026 465.186C964.129 488.471 970.909 509.338 973.786 516.86C976.946 503.601 982.8 479.539 980.933 489.368C979.065 499.197 990.528 527.894 996.494 541.014C996.136 517.6 997.007 475.503 1003.35 494.43C1009.69 513.358 1006.57 540.02 1004.21 550.985Z" fill="#759F34" fill-opacity="0.88"/>
<path d="M1694 461.947C1296 412.347 674.167 582.113 471 648.947L56 929.447L1756.5 994.447C1901.5 840.114 2092 511.547 1694 461.947Z" fill="#90C63C"/>
<path d="M536 589.618C335.6 526.018 145.833 533.118 76 544.618L-87.5 613.118V1008.12L2054.5 991.118C2112.33 905.784 2139.7 718.718 1786.5 653.118C1345 571.118 1190.5 631.618 1056 653.118C921.5 674.618 786.5 669.118 536 589.618Z" fill="#6EA929"/>
<path d="M536 589.618C335.6 526.018 145.833 533.118 76 544.618L-87.5 613.118V1008.12L2054.5 991.118C2112.33 905.784 2139.7 718.718 1786.5 653.118C1345 571.118 1190.5 631.618 1056 653.118C921.5 674.618 786.5 669.118 536 589.618Z" fill="#6EA929"/>
<path d="M373.652 489.592C324.452 461.992 285.819 490.092 272.652 507.592C246.652 564.092 306.152 561.592 289.152 586.592C272.152 611.592 222.652 597.092 205.152 611.592C187.652 626.092 260.152 690.592 322.652 692.592C385.152 694.592 526.652 654.092 515.152 631.092C503.652 608.092 506.652 576.092 448.652 561.592C390.652 547.092 435.152 524.092 373.652 489.592Z" fill="#EFFE7F" fill-opacity="0.04"/>
<path d="M1487.26 644C1469.2 633.843 1403.08 662.45 1398.25 668.89C1388.71 689.683 1348.24 668.799 1342 678C1335.76 687.2 1379.9 701.828 1373.47 707.164C1367.05 712.5 1393.66 736.238 1416.6 736.974C1439.54 737.71 1491.48 728.464 1487.26 720C1483.04 711.536 1499 688.763 1462.85 688.763C1440.9 688.763 1509.83 656.697 1487.26 644Z" fill="#EFFE7F" fill-opacity="0.04"/>
<path d="M1178.49 295.461C1075.01 237.218 993.747 296.517 966.053 333.447C911.367 452.678 1036.51 447.402 1000.76 500.159C965.001 552.916 860.887 522.317 824.079 552.916C787.271 583.515 939.762 719.629 1071.22 723.849C1202.68 728.07 1500.3 642.603 1476.11 594.067C1451.92 545.53 1458.23 478.001 1336.24 447.402C1214.25 416.803 1307.84 368.266 1178.49 295.461Z" fill="#EFFE7F" fill-opacity="0.09"/>
</g>
</svg>
