<svg width="340" height="49" viewBox="0 0 340 49" fill="none" xmlns="http://www.w3.org/2000/svg">
<path fill-rule="evenodd" clip-rule="evenodd" d="M252.466 39.2673C256.266 36.6059 258.477 33.4205 258.477 29.9973C258.477 20.6664 242.052 13.1023 221.791 13.1023C213.71 13.1023 206.239 14.3057 200.177 16.3446C195.47 6.86723 181.592 0 165.205 0C146.899 0 131.725 8.56906 128.967 19.7733C126.256 19.0306 123.267 18.619 120.127 18.619C107.812 18.619 97.8279 24.9482 97.8279 32.7557C97.8279 34.9468 98.6142 37.0215 100.018 38.8725C41.0377 40.5497 0 44.2817 0 48.6164L340 48.6164C340 44.5947 304.673 41.0917 252.466 39.2673Z" fill="white" fill-opacity="0.44"/>
</svg>
