<svg width="709" height="141" viewBox="0 0 709 141" fill="none" xmlns="http://www.w3.org/2000/svg">
<path fill-rule="evenodd" clip-rule="evenodd" d="M182.533 113.885C174.61 106.167 170 96.9281 170 87C170 59.938 204.25 38 246.5 38C263.352 38 278.931 41.4902 291.572 47.4036C301.388 19.9167 330.327 0 364.5 0C402.673 0 434.315 24.8525 440.067 57.3476C445.719 55.1936 451.951 54 458.5 54C484.181 54 505 72.3563 505 95C505 101.355 503.36 107.372 500.434 112.74C623.424 117.605 709 128.428 709 141L0 141C0 129.336 73.6662 119.177 182.533 113.885Z" fill="white" fill-opacity="0.58"/>
</svg>
